<?xml version="1.0" encoding="utf-8"?>
<!-- Generator: Adobe Illustrator 23.0.0, SVG Export Plug-In . SVG Version: 6.00 Build 0)  -->
<svg version="1.1" id="Layer_1" xmlns="http://www.w3.org/2000/svg" xmlns:xlink="http://www.w3.org/1999/xlink" x="0px" y="0px"
	 viewBox="0 0 58 58" style="enable-background:new 0 0 58 58;" xml:space="preserve">
<style type="text/css">
	.st0{fill:#565656;}
	.st1{fill:#4267B2;}
	.st2{fill:#FFFFFF;}
</style>
<title>f-ogo_RGB_HEX-58</title>
<rect x="0.1" class="st0" width="58" height="58"/>
<path class="st1" d="M29.1,29"/>
<g>
	<path class="st2" d="M14.2,17.4c0-0.5-0.1-0.9-0.4-1.1c-0.3-0.2-0.7-0.3-1.2-0.3c-0.9,0-1.7,0.2-2.4,0.6c-0.8,0.4-1.1,0.9-1.1,1.4
		c0,0.3,0.1,0.6,0.4,0.8c0.3,0.2,1,0.5,2.2,0.9c1.2,0.4,2.2,0.8,2.8,1.2s0.9,0.9,0.9,1.6c0,1-0.8,1.9-2.3,2.8s-3.1,1.3-4.8,1.3
		c-0.5,0-1-0.1-1.3-0.3c-0.3-0.2-0.5-0.5-0.5-0.8c0-0.3,0.1-0.5,0.2-0.7c0.1-0.2,0.3-0.3,0.5-0.3c0.1,0,0.2,0,0.3,0.1
		c0.5,0.2,1.1,0.4,1.5,0.4c0.8,0,1.7-0.2,2.7-0.7c1-0.5,1.5-0.9,1.5-1.3c0-0.2-0.1-0.4-0.4-0.5c-0.3-0.2-0.8-0.4-1.5-0.6
		c-1.1-0.4-2-0.7-2.6-0.9c-0.6-0.2-1-0.6-1.3-0.9c-0.3-0.4-0.4-0.9-0.4-1.4c0-1,0.6-1.9,1.7-2.7c1.1-0.8,2.5-1.3,4-1.3
		c0.9,0,1.6,0.2,2.1,0.5c0.5,0.3,0.8,0.7,0.8,1.2C15.7,16.9,15.2,17.4,14.2,17.4z"/>
	<path class="st2" d="M24.3,21.8c-0.3,1.2-1,2.2-2,3.1s-2,1.3-2.9,1.3c-0.8,0-1.4-0.3-1.9-0.8s-0.8-1.3-0.8-2.1c0-1.3,0.5-2.7,1.4-4
		c0.9-1.3,2-2,3.3-2c0.9,0,1.6,0.3,2.2,1c0.6,0.7,0.8,1.4,0.8,2.4C24.5,21.1,24.4,21.4,24.3,21.8L24.3,21.8z M20.3,19.4
		c-0.4,0.3-0.7,0.8-1.1,1.5c-0.3,0.7-0.5,1.4-0.5,2.1c0,0.4,0.1,0.8,0.2,1.1c0.2,0.3,0.4,0.4,0.6,0.4c0.6,0,1.3-0.4,2-1.1
		c0.7-0.8,1-1.6,1-2.6c0-0.5-0.1-1-0.3-1.3C22,19.1,21.7,19,21.3,19C20.9,19,20.6,19.1,20.3,19.4L20.3,19.4z"/>
	<path class="st2" d="M28.3,26.2c-0.9,0-1.5-0.2-2-0.7c-0.4-0.5-0.7-1.1-0.7-2c0-1.3,0.5-2.7,1.6-4.3c1.1-1.5,2.1-2.3,3.1-2.3
		c0.5,0,0.9,0.2,1.3,0.7c0.3,0.5,0.5,1,0.5,1.5c0,0.5-0.1,0.8-0.3,1c-0.2,0.2-0.4,0.3-0.5,0.3c-0.5,0-0.8-0.3-0.9-1
		c-0.1-0.5-0.2-0.8-0.4-0.8c-0.4,0-0.9,0.6-1.6,1.7c-0.7,1.2-1,2.2-1,3c0,0.7,0.4,1.1,1.1,1.1c0.8,0,1.7-0.3,2.5-0.9
		c0.4-0.3,0.7-0.4,1-0.4c0.3,0,0.4,0.1,0.4,0.4c0,0.4-0.5,0.9-1.4,1.6C30.2,25.9,29.3,26.2,28.3,26.2z"/>
	<path class="st2" d="M34.6,20.6L34.6,20.6c0.2-0.9,0.3-1.5,0.3-1.6c0-0.4,0.1-0.7,0.3-1c0.2-0.3,0.4-0.4,0.7-0.4
		c0.4,0,0.6,0.1,0.8,0.3c0.2,0.2,0.3,0.4,0.3,0.6c0,0.2-0.1,0.6-0.3,1.3l0,0.2c-0.3,1-0.5,1.8-0.5,2.5C36,23,36,23.5,36,23.9
		c0,0.3,0.1,0.7,0.2,1.3c0,0.1,0,0.2,0,0.2c0,0.1-0.1,0.3-0.3,0.5s-0.5,0.3-0.7,0.3c-0.7,0-1-0.5-1-1.6c0-0.9,0.1-2,0.4-3.2
		C34.5,21.1,34.5,20.9,34.6,20.6z M38.4,14.2c0,0.4-0.2,0.7-0.5,1c-0.3,0.3-0.6,0.4-0.9,0.4c-0.3,0-0.6-0.1-0.8-0.4
		c-0.2-0.3-0.4-0.5-0.4-0.8c0-0.4,0.1-0.7,0.4-0.9c0.2-0.2,0.6-0.3,1-0.3c0.3,0,0.6,0.1,0.8,0.3C38.2,13.7,38.4,13.9,38.4,14.2z"/>
	<path class="st2" d="M44,23.2c-1.4,1.8-2.7,2.7-4,2.7c-0.5,0-0.9-0.2-1.2-0.6c-0.3-0.4-0.5-0.8-0.5-1.4c0-1.4,0.6-2.9,1.8-4.4
		c1.2-1.6,2.5-2.3,3.7-2.3c0.6,0,1.1,0.3,1.3,1c0.6,0,0.9,0.2,0.9,0.7c0,0.2-0.1,0.6-0.2,1.2c-0.2,1.1-0.3,1.9-0.3,2.6
		c0,0.7,0,1.1,0.1,1.4c0.1,0.3,0.2,0.4,0.2,0.5c0,0.1,0.2,0.2,0.4,0.3c0.2,0.1,0.3,0.2,0.3,0.4c0,0.3-0.1,0.5-0.4,0.7
		c-0.3,0.2-0.5,0.3-0.8,0.3C44.3,26.1,43.9,25.1,44,23.2z M43.5,18.8c-0.5,0-1.2,0.6-2.1,1.7c-0.8,1.2-1.3,2.2-1.3,3
		c0,0.4,0.1,0.6,0.3,0.6c0.6,0,1.4-0.5,2.3-1.6c0.9-1.1,1.3-2,1.3-2.9c0-0.3-0.1-0.5-0.2-0.6C43.8,18.9,43.7,18.8,43.5,18.8z"/>
	<path class="st2" d="M50.8,12.6c0.6,0,0.8,0.3,0.8,0.9c0,0.3,0,0.6-0.1,0.9c-0.1,0.3-0.3,1.1-0.6,2.4c-0.3,0.9-0.4,1.9-0.6,3.1
		s-0.2,2-0.2,2.6c0,0.7,0,1.4,0.1,2.4c0,0.2,0,0.4,0,0.5c0,0.3-0.1,0.6-0.3,0.8c-0.2,0.2-0.5,0.3-0.8,0.3c-0.4,0-0.6-0.2-0.8-0.5
		c-0.2-0.3-0.2-0.9-0.2-1.8c0-1.8,0.2-4,0.6-6.5c0.4-2.5,0.8-3.9,1.1-4.4C50.2,12.8,50.5,12.6,50.8,12.6z"/>
	<path class="st2" d="M14.1,39.8L14.1,39.8c0.2-0.9,0.3-1.5,0.3-1.6c0-0.4,0.1-0.7,0.3-1c0.2-0.3,0.4-0.4,0.7-0.4
		c0.4,0,0.6,0.1,0.8,0.3c0.2,0.2,0.3,0.4,0.3,0.6s-0.1,0.6-0.3,1.3l0,0.2c-0.3,1-0.5,1.8-0.5,2.5c-0.1,0.6-0.1,1.1-0.1,1.5
		c0,0.3,0.1,0.7,0.2,1.3c0,0.1,0,0.2,0,0.2c0,0.1-0.1,0.3-0.3,0.5s-0.5,0.3-0.7,0.3c-0.7,0-1-0.5-1-1.6c0-0.9,0.1-2,0.4-3.2
		C14,40.3,14.1,40.1,14.1,39.8z M17.9,33.4c0,0.4-0.2,0.7-0.5,1c-0.3,0.3-0.6,0.4-0.9,0.4c-0.3,0-0.6-0.1-0.8-0.4s-0.4-0.5-0.4-0.8
		c0-0.4,0.1-0.7,0.4-0.9c0.2-0.2,0.6-0.3,1-0.3c0.3,0,0.6,0.1,0.8,0.3C17.8,32.9,17.9,33.1,17.9,33.4z"/>
	<path class="st2" d="M20.4,45.4c-0.9,0-1.5-0.2-2-0.7c-0.4-0.5-0.7-1.1-0.7-2c0-1.3,0.5-2.7,1.6-4.3c1.1-1.5,2.1-2.3,3.1-2.3
		c0.5,0,0.9,0.2,1.3,0.7c0.3,0.5,0.5,1,0.5,1.5c0,0.5-0.1,0.8-0.3,1c-0.2,0.2-0.4,0.3-0.5,0.3c-0.5,0-0.8-0.3-0.9-1
		c-0.1-0.5-0.2-0.8-0.4-0.8c-0.4,0-0.9,0.6-1.6,1.7c-0.7,1.2-1,2.2-1,3c0,0.7,0.4,1.1,1.1,1.1c0.8,0,1.7-0.3,2.5-0.9
		c0.4-0.3,0.7-0.4,1-0.4c0.3,0,0.4,0.1,0.4,0.4c0,0.4-0.5,0.9-1.4,1.6C22.4,45.1,21.5,45.4,20.4,45.4z"/>
	<path class="st2" d="M33.6,41c-0.3,1.2-1,2.2-2,3.1s-2,1.3-2.9,1.3c-0.8,0-1.4-0.3-1.9-0.8S26,43.3,26,42.4c0-1.3,0.5-2.7,1.4-4
		c0.9-1.3,2-2,3.3-2c0.9,0,1.6,0.3,2.2,1c0.6,0.7,0.8,1.4,0.8,2.4C33.7,40.3,33.7,40.6,33.6,41L33.6,41z M29.5,38.6
		c-0.4,0.3-0.7,0.8-1.1,1.5c-0.3,0.7-0.5,1.4-0.5,2.1c0,0.4,0.1,0.8,0.2,1.1c0.2,0.3,0.4,0.4,0.6,0.4c0.6,0,1.3-0.4,2-1.1
		c0.7-0.8,1-1.6,1-2.6c0-0.5-0.1-1-0.3-1.3s-0.5-0.5-0.9-0.5C30.2,38.2,29.9,38.3,29.5,38.6L29.5,38.6z"/>
	<path class="st2" d="M41.8,43.9c-0.3-0.5-0.4-1.3-0.5-2.6c-0.1-1.3-0.4-2-0.8-2c-0.4,0-1,0.7-1.9,2.1s-1.5,2.4-1.7,3.1
		c0,0.2-0.1,0.4-0.3,0.5c-0.1,0.1-0.3,0.2-0.4,0.2c-0.8,0-1.2-0.4-1.2-1.1c0-0.2,0.1-0.8,0.2-1.7c0.2-1.1,0.3-2.5,0.3-4.1
		c0-0.2,0.1-0.5,0.3-0.8c0.2-0.3,0.4-0.4,0.7-0.4c0.3,0,0.5,0.1,0.7,0.2c0.2,0.2,0.2,0.6,0.2,1.2c0,0.5-0.1,1.5-0.4,2.9
		c1.1-2.6,2.4-4,3.8-4c1.2,0,1.9,1,2.1,2.9c0.2,1.9,0.4,2.9,0.7,2.9c0.1,0,0.3,0,0.4-0.1c0.2-0.1,0.3-0.1,0.4-0.1
		c0.3,0,0.4,0.1,0.4,0.4c0,0.3-0.2,0.5-0.5,0.8s-0.8,0.4-1.3,0.4C42.5,44.6,42,44.4,41.8,43.9L41.8,43.9z"/>
</g>
</svg>
